<svg xmlns="http://www.w3.org/2000/svg" width="337" height="264" fill="none" viewBox="0 0 337 264">
  <g clip-path="url(#a)">
    <path fill="#fff" d="M0 0h337v264H0z"/>
    <g clip-path="url(#b)">
      <g clip-path="url(#c)">
        <mask id="d" fill="#fff">
          <path d="M49 63h308v32H49V63Z"/>
        </mask>
        <path fill="#E5E7EB" d="M357 95v-1H49v2h308v-1Z" mask="url(#d)"/>
        <circle cx="65" cy="79" r="4" fill="#4B5563"/>
        <circle cx="81" cy="79" r="4" fill="#D1D5DB"/>
        <circle cx="97" cy="79" r="4" fill="#E5E7EB"/>
        <rect width="96" height="96" x="175" y="145" fill="#F3F4F6" rx="48"/>
        <path fill="#6B7280" d="M193.296 192.461a29.15 29.15 0 0 0 16.44 26.25l-13.916-38.125a29.03 29.03 0 0 0-2.524 11.875Zm29.68 2.552-8.753 25.427a29.186 29.186 0 0 0 17.923-.465 3.425 3.425 0 0 1-.21-.403l-8.96-24.559Zm19.177-4.025a15.407 15.407 0 0 0-2.405-8.043 13.655 13.655 0 0 1-2.866-6.839 5.049 5.049 0 0 1 4.9-5.18c.128.005.253.014.374.028a29.155 29.155 0 0 0-44.065 5.488c.686.021 1.33.035 1.88.035 3.048 0 7.77-.371 7.77-.371a1.204 1.204 0 0 1 1.237 1.112 1.204 1.204 0 0 1-1.048 1.292s-1.582.182-3.339.277l10.622 31.591 6.384-19.145-4.546-12.446c-1.572-.095-3.059-.28-3.059-.28a1.209 1.209 0 0 1-.637-2.08c.224-.207.518-.322.822-.321 0 0 4.816.371 7.683.371 3.048 0 7.773-.371 7.773-.371a1.21 1.21 0 0 1 1.168.656 1.205 1.205 0 0 1-.982 1.748s-1.582.182-3.336.277l10.539 31.353 3.01-9.538a33.557 33.557 0 0 0 2.121-9.614Zm6.1-9.517a27.65 27.65 0 0 1-2.219 10.448l-8.907 25.756a29.166 29.166 0 0 0 10.93-39.2c.131.994.196 1.993.196 2.996Zm-25.791-24.01c-19.331 0-35 15.67-35 35 0 19.331 15.669 35 35 35 19.33 0 35-15.669 35-35 0-19.33-15.67-35-35-35Zm12.806 65.317a32.86 32.86 0 0 1-31.199-3.034 33.003 33.003 0 0 1-11.924-14.476 32.86 32.86 0 0 1 3.034-31.199 33.002 33.002 0 0 1 14.476-11.921 32.869 32.869 0 0 1 31.199 3.031 33.012 33.012 0 0 1 11.925 14.476 32.867 32.867 0 0 1-3.035 31.199 33.003 33.003 0 0 1-14.476 11.924Z"/>
        <mask id="e" fill="#fff">
          <path d="M49 95h36v187H49V95Z"/>
        </mask>
        <path fill="#fff" d="M49 95h36v187H49V95Z"/>
        <path fill="#E5E7EB" d="M85 95h-1v187h2V95h-1Z" mask="url(#e)"/>
        <rect width="24" height="24" x="55" y="99" fill="#D1D5DB" rx="4"/>
        <rect width="24" height="24" x="55" y="130" fill="#E5E7EB" rx="4"/>
        <rect width="24" height="24" x="55" y="161" fill="#F3F4F6" rx="4"/>
        <rect width="24" height="24" x="55" y="192" fill="#F9FAFB" rx="4"/>
        <mask id="f" fill="#fff">
          <path d="M85 95h272v18H85V95Z"/>
        </mask>
        <path fill="#E5E7EB" d="M357 113v-1H85v2h272v-1Z" mask="url(#f)"/>
      </g>
      <rect width="307" height="218" x="49.5" y="63.5" stroke="#E5E7EB" rx="11.5"/>
    </g>
  </g>
  <defs>
    <clipPath id="a">
      <path fill="#fff" d="M0 0h337v264H0z"/>
    </clipPath>
    <clipPath id="b">
      <path fill="#fff" d="M24-47h320v320H24z"/>
    </clipPath>
    <clipPath id="c">
      <rect width="308" height="219" x="49" y="63" fill="#fff" rx="12"/>
    </clipPath>
  </defs>
</svg>
