<svg xmlns="http://www.w3.org/2000/svg" width="337" height="264" fill="none" viewBox="0 0 337 264">
  <g clip-path="url(#a)">
    <path fill="#fff" d="M0 0h337v264H0z"/>
    <g clip-path="url(#b)">
      <rect width="307" height="218" x="49.5" y="54.5" stroke="#E5E7EB" rx="11.5"/>
      <mask id="c" fill="#fff">
        <path d="M49 54h308v32H49V54Z"/>
      </mask>
      <path fill="#E5E7EB" d="M357 86v-1H49v2h308v-1Z" mask="url(#c)"/>
      <circle cx="65" cy="70" r="4" fill="#D1D5DB"/>
      <circle cx="81" cy="70" r="4" fill="#4B5563"/>
      <circle cx="97" cy="70" r="4" fill="#E5E7EB"/>
      <mask id="d" fill="#fff">
        <path d="M49 86h157v178H49V86Z"/>
      </mask>
      <path fill="#E5E7EB" d="M206 86h-1v178h2V86h-1Z" mask="url(#d)"/>
      <rect width="64" height="64" x="96" y="143" fill="#F3F4F6" rx="32"/>
      <path fill="#4B5563" d="M128 175c-2.383 0-4.424-.849-6.121-2.546-1.697-1.697-2.546-3.737-2.546-6.121 0-2.383.849-4.423 2.546-6.12 1.697-1.698 3.738-2.546 6.121-2.546 2.383 0 4.424.848 6.121 2.546 1.697 1.697 2.546 3.737 2.546 6.12 0 2.384-.849 4.424-2.546 6.121-1.697 1.697-3.738 2.546-6.121 2.546Zm-17.333 13v-1.733c0-1.228.316-2.356.949-3.385a6.348 6.348 0 0 1 2.517-2.357 32.153 32.153 0 0 1 6.825-2.518 29.905 29.905 0 0 1 7.042-.84 29.645 29.645 0 0 1 7.042.84 32.484 32.484 0 0 1 6.825 2.518 6.326 6.326 0 0 1 2.519 2.357 6.321 6.321 0 0 1 .947 3.385V188c0 1.192-.424 2.212-1.272 3.062-.847.849-1.868 1.273-3.061 1.271h-26c-1.192 0-2.211-.424-3.059-1.271-.848-.848-1.273-1.869-1.274-3.062Z"/>
      <rect width="64" height="64" x="252" y="143" fill="#F3F4F6" rx="32"/>
      <path fill="#4B5563" d="M284 175c-2.383 0-4.424-.849-6.121-2.546-1.697-1.697-2.546-3.737-2.546-6.121 0-2.383.849-4.423 2.546-6.12 1.697-1.698 3.738-2.546 6.121-2.546 2.383 0 4.424.848 6.121 2.546 1.697 1.697 2.546 3.737 2.546 6.12 0 2.384-.849 4.424-2.546 6.121-1.697 1.697-3.738 2.546-6.121 2.546Zm-17.333 13v-1.733c0-1.228.316-2.356.949-3.385a6.348 6.348 0 0 1 2.517-2.357 32.153 32.153 0 0 1 6.825-2.518 29.905 29.905 0 0 1 7.042-.84 29.645 29.645 0 0 1 7.042.84 32.484 32.484 0 0 1 6.825 2.518 6.326 6.326 0 0 1 2.519 2.357 6.321 6.321 0 0 1 .947 3.385V188c0 1.192-.424 2.212-1.272 3.062-.847.849-1.868 1.273-3.061 1.271h-26c-1.192 0-2.211-.424-3.059-1.271-.848-.848-1.273-1.869-1.274-3.062Z"/>
      <rect width="127" height="31" x="139.5" y="226.5" fill="#fff" rx="7.5"/>
      <rect width="127" height="31" x="139.5" y="226.5" stroke="#E5E7EB" rx="7.5"/>
      <rect width="24" height="24" x="145" y="230" fill="#F3F4F6" rx="12"/>
      <rect width="24" height="24" x="176" y="230" fill="#F3F4F6" rx="12"/>
      <rect width="24" height="24" x="207" y="230" fill="#F3F4F6" rx="12"/>
      <rect width="24" height="24" x="237" y="230" fill="#F3F4F6" rx="12"/>
    </g>
  </g>
  <defs>
    <clipPath id="a">
      <path fill="#fff" d="M0 0h337v264H0z"/>
    </clipPath>
    <clipPath id="b">
      <path fill="#fff" d="M24-56h320v320H24z"/>
    </clipPath>
  </defs>
</svg>
