<svg xmlns="http://www.w3.org/2000/svg" width="338" height="264" fill="none" viewBox="0 0 338 264">
  <g clip-path="url(#a)">
    <path fill="#fff" d="M0 0h338v264H0z"/>
    <g clip-path="url(#b)">
      <path fill="#fff" d="M9-25h320v320H9z"/>
      <circle cx="169" cy="135" r="16" fill="#D1D5DB"/>
      <circle cx="169" cy="135" r="49.5" stroke="#D1D5DB"/>
      <circle cx="169" cy="135" r="88.5" stroke="#D1D5DB"/>
      <circle cx="169" cy="135" r="125.5" stroke="#D1D5DB"/>
      <circle cx="169" cy="135" r="159.5" stroke="#D1D5DB"/>
      <path fill="#4B5563" d="m201 48.378-4.769-8.26h-6.826L201 60.201l11.595-20.083h-6.826L201 48.378Z"/>
      <path fill="#4B5563" d="M214.183 40.118 201 62.951l-13.183-22.833h-7.464L201 75.882l20.647-35.764h-7.464Z"/>
      <g clip-path="url(#c)">
        <mask id="d" width="44" height="44" x="115" y="151" maskUnits="userSpaceOnUse" style="mask-type:luminance">
          <path fill="#fff" d="M115 151h44v44h-44v-44Z"/>
        </mask>
        <g mask="url(#d)">
          <path fill="#4B5563" d="M159 172.43c0-2.915-3.65-5.678-9.247-7.39 1.292-5.704.718-10.243-1.812-11.697a3.943 3.943 0 0 0-2.009-.501v1.999c.413 0 .744.082 1.023.234 1.219.701 1.749 3.363 1.337 6.789a27.484 27.484 0 0 1-.459 2.637 43.908 43.908 0 0 0-5.694-.978 44.164 44.164 0 0 0-3.731-4.484c2.924-2.717 5.669-4.206 7.535-4.206v-2c-2.468 0-5.696 1.758-8.961 4.807-3.264-3.028-6.494-4.77-8.96-4.77v1.998c1.857 0 4.611 1.482 7.535 4.18a42.64 42.64 0 0 0-3.705 4.475 42.224 42.224 0 0 0-5.704.987 26.845 26.845 0 0 1-.467-2.6c-.422-3.428.099-6.09 1.311-6.798.268-.161.618-.235 1.03-.235v-1.998c-.751 0-1.435.161-2.026.501-2.52 1.453-3.085 5.982-1.785 11.669-5.579 1.723-9.211 4.475-9.211 7.381 0 2.915 3.65 5.678 9.247 7.388-1.292 5.705-.718 10.245 1.812 11.697.583.341 1.265.502 2.016.502 2.468 0 5.697-1.758 8.962-4.807 3.263 3.031 6.491 4.77 8.959 4.77a4.029 4.029 0 0 0 2.026-.502c2.521-1.452 3.086-5.98 1.786-11.667 5.56-1.713 9.192-4.475 9.192-7.381Zm-11.678-5.982a40.706 40.706 0 0 1-1.21 3.542 47.948 47.948 0 0 0-2.466-4.252c1.276.187 2.502.424 3.678.71m-4.107 9.551a47.562 47.562 0 0 1-2.162 3.427 46.78 46.78 0 0 1-8.088.009 46.613 46.613 0 0 1-4.035-6.978 47.69 47.69 0 0 1 4.018-7.003 46.768 46.768 0 0 1 8.087-.011 49.698 49.698 0 0 1 2.171 3.41 45.982 45.982 0 0 1 1.866 3.568 49.658 49.658 0 0 1-1.857 3.578Zm2.895-1.166a38.112 38.112 0 0 1 1.237 3.57 39.37 39.37 0 0 1-3.694.717 49.402 49.402 0 0 0 2.457-4.287Zm-9.094 9.57a36.839 36.839 0 0 1-2.493-2.871c.807.037 1.632.064 2.466.064.844.002 1.675-.02 2.493-.064a34.738 34.738 0 0 1-2.466 2.871Zm-6.673-5.283a40.365 40.365 0 0 1-3.678-.708c.332-1.157.745-2.35 1.21-3.542.369.715.756 1.434 1.177 2.152.422.718.852 1.417 1.291 2.098Zm6.627-18.664c.836.863 1.668 1.82 2.494 2.871a55.291 55.291 0 0 0-2.466-.064c-.845-.001-1.676.02-2.493.064a34.871 34.871 0 0 1 2.465-2.871Zm-6.636 5.284a49.229 49.229 0 0 0-2.457 4.277 38.783 38.783 0 0 1-1.237-3.569 42.539 42.539 0 0 1 3.694-.708Zm-8.116 11.227c-3.176-1.353-5.229-3.129-5.229-4.537s2.053-3.194 5.229-4.538c.77-.332 1.613-.629 2.484-.905a43.325 43.325 0 0 0 2.017 5.461 42.156 42.156 0 0 0-1.99 5.434 27.39 27.39 0 0 1-2.511-.915Zm4.825 12.815c-1.219-.696-1.749-3.362-1.336-6.787.099-.843.26-1.732.458-2.638 1.756.431 3.676.763 5.694.979a43.946 43.946 0 0 0 3.731 4.484c-2.924 2.717-5.669 4.206-7.535 4.206a2.185 2.185 0 0 1-1.012-.242m21.274-6.833c.422 3.427-.099 6.091-1.311 6.798-.267.162-.618.233-1.03.233-1.857 0-4.611-1.479-7.535-4.18a42.274 42.274 0 0 0 3.705-4.473 42.224 42.224 0 0 0 5.704-.987c.209.905.364 1.774.467 2.609Zm3.452-5.982c-.77.332-1.613.629-2.484.906a42.98 42.98 0 0 0-2.017-5.462 42.49 42.49 0 0 0 1.99-5.434c.889.278 1.73.583 2.52.915 3.176 1.353 5.229 3.13 5.229 4.538-.009 1.408-2.063 3.193-5.238 4.537Z"/>
          <path fill="#4B5563" d="M136.991 176.529c1.087 0 2.13-.432 2.898-1.201a4.096 4.096 0 0 0 0-5.797 4.096 4.096 0 0 0-5.797 0 4.098 4.098 0 0 0 2.899 6.998Z"/>
        </g>
      </g>
      <g clip-path="url(#e)">
        <rect width="44" height="44" x="273" y="119" fill="#fff" rx="8"/>
        <mask id="f" width="44" height="44" x="273" y="119" maskUnits="userSpaceOnUse" style="mask-type:luminance">
          <path fill="#fff" d="M273 119h44v44h-44v-44Z"/>
        </mask>
        <g mask="url(#f)">
          <path fill="#4B5563" d="M315.953 119h-41.908a1.039 1.039 0 0 0-.74.307 1.033 1.033 0 0 0-.305.74v41.908a1.058 1.058 0 0 0 .306.741 1.056 1.056 0 0 0 .741.306h41.908a1.058 1.058 0 0 0 .741-.306 1.056 1.056 0 0 0 .306-.741v-41.91a1.04 1.04 0 0 0-.308-.74 1.056 1.056 0 0 0-.34-.227 1.057 1.057 0 0 0-.401-.078Zm-16.762 23.514h-5.238v16.295h-4.191v-16.295h-5.238v-3.609h14.667v3.609Zm1.173 15.364v-4.354s2.38 1.793 5.234 1.793c2.855 0 2.745-1.867 2.745-2.123 0-2.708-8.089-2.708-8.089-8.711 0-8.162 11.787-4.94 11.787-4.94l-.147 3.879s-1.976-1.318-4.209-1.318c-2.233 0-3.038 1.063-3.038 2.196 0 2.928 8.162 2.636 8.162 8.529 0 9.075-12.445 5.051-12.445 5.051"/>
        </g>
      </g>
      <path fill="url(#g)" d="M9 229h320v66H9z"/>
      <path fill="url(#h)" d="M9-25h320v66H9z"/>
    </g>
  </g>
  <defs>
    <clipPath id="a">
      <path fill="#fff" d="M0 0h338v264H0z"/>
    </clipPath>
    <clipPath id="b">
      <path fill="#fff" d="M9-25h320v320H9z"/>
    </clipPath>
    <clipPath id="c">
      <path fill="#fff" d="M115 151h44v44h-44z"/>
    </clipPath>
    <clipPath id="e">
      <rect width="44" height="44" x="273" y="119" fill="#fff" rx="8"/>
    </clipPath>
    <linearGradient id="g" x1="169" x2="169" y1="295" y2="191.5" gradientUnits="userSpaceOnUse">
      <stop offset=".302" stop-color="#fff"/>
      <stop offset="1" stop-color="#fff" stop-opacity="0"/>
    </linearGradient>
    <linearGradient id="h" x1="169" x2="169" y1="-62.5" y2="41" gradientUnits="userSpaceOnUse">
      <stop offset=".7" stop-color="#fff"/>
      <stop offset="1" stop-color="#fff" stop-opacity="0"/>
    </linearGradient>
  </defs>
</svg>
